<?xml version="1.0" encoding="utf-8"?>
<!-- Generator: Adobe Illustrator 21.1.0, SVG Export Plug-In . SVG Version: 6.00 Build 0)  -->
<svg version="1.1" id="Layer_1" xmlns="http://www.w3.org/2000/svg" xmlns:xlink="http://www.w3.org/1999/xlink" x="0px" y="0px"
	 viewBox="0 0 112 112" style="enable-background:new 0 0 112 112;" xml:space="preserve">
<style type="text/css">
	.st0{fill:#00A9E5;}
	.st1{fill:#353535;}
	.st2{fill:none;}
	.st3{fill:#00BFB3;}
	.st4{fill:#019B8F;}
	.st5{fill:#FFFFFF;}
</style>
<g id="Beats_5_">
	<g>
		<path class="st0" d="M54,16H26v32h40c3.5,0,6.8,0.7,9.8,2.1C77.2,47,78,43.6,78,40v0C78,26.7,67.3,16,54,16z"/>
		<path class="st1" d="M26,48v16h28c9.7,0,18-5.7,21.8-13.9c-3-1.3-6.3-2.1-9.8-2.1H26z"/>
	</g>
	<g>
		<path class="st2" d="M60.6,71.3c-0.1,0-0.2,0-0.3,0.1C60.4,71.3,60.5,71.3,60.6,71.3z"/>
		<path class="st2" d="M64.8,70.1c-0.1,0-0.2,0.1-0.3,0.1C64.6,70.2,64.7,70.1,64.8,70.1z"/>
		<path class="st2" d="M62.7,70.8c-0.1,0-0.3,0.1-0.4,0.1C62.5,70.8,62.6,70.8,62.7,70.8z"/>
		<path class="st3" d="M82.5,54.6c-3.7,7.3-10.1,12.8-17.6,15.5c-0.1,0-0.2,0.1-0.3,0.1c-0.6,0.2-1.2,0.4-1.8,0.6
			c-0.1,0-0.3,0.1-0.4,0.1c-0.6,0.2-1.1,0.3-1.7,0.4c-0.1,0-0.2,0-0.3,0.1c-2,0.4-4.1,0.6-6.3,0.6H26v24h40c13.3,0,24-10.7,24-24v0
			C90,65.1,87.1,58.9,82.5,54.6z"/>
		<path class="st4" d="M60.3,71.4c0.1,0,0.2,0,0.3-0.1c0.6-0.1,1.1-0.3,1.7-0.4c0.1,0,0.3-0.1,0.4-0.1c0.6-0.2,1.2-0.4,1.8-0.6
			c0.1,0,0.2-0.1,0.3-0.1c7.5-2.7,13.9-8.2,17.6-15.5c0,0,0,0,0,0c-2-1.8-4.2-3.4-6.7-4.5C72,58.3,63.7,64,54,64H26v8h28
			C56.1,72,58.2,71.8,60.3,71.4z"/>
	</g>
</g>
</svg>
