<?xml version="1.0" encoding="UTF-8" standalone="no"?>
<svg
   xmlns:dc="http://purl.org/dc/elements/1.1/"
   xmlns:cc="http://creativecommons.org/ns#"
   xmlns:rdf="http://www.w3.org/1999/02/22-rdf-syntax-ns#"
   xmlns:svg="http://www.w3.org/2000/svg"
   xmlns="http://www.w3.org/2000/svg"
   viewBox="0 0 931.30664 923.66669"
   height="923.66669"
   width="931.30664"
   xml:space="preserve"
   id="svg2"
   version="1.1"><metadata
     id="metadata8"><rdf:RDF><cc:Work
         rdf:about=""><dc:format>image/svg+xml</dc:format><dc:type
           rdf:resource="http://purl.org/dc/dcmitype/StillImage" /><dc:title></dc:title></cc:Work></rdf:RDF></metadata><defs
     id="defs6" /><g
     transform="matrix(1.3333333,0,0,-1.3333333,0,923.66667)"
     id="g10"><g
       transform="scale(0.1)"
       id="g12"><path
         id="path14"
         style="fill:#ffffff;fill-opacity:1;fill-rule:evenodd;stroke:none"
         d="m 1523.02,1827.17 381.38,64.98 c 186.17,-205.37 113.26,-286.35 273,-403.08 265.75,-194.39 598.57,-107.43 711.83,50.79 133.99,187.4 124.81,365.66 83.07,534.44 l 432.72,73.74 52.88,-442.89 2462.76,445.38 -146.51,1780.29 -84.05,-15.31 L 5427.7,6772.19 980.934,6306.63 1523.02,1827.17" /><path
         id="path16"
         style="fill:#703ba0;fill-opacity:1;fill-rule:evenodd;stroke:none"
         d="m 3486.97,5201.31 c 38.13,36.31 -189.92,84.04 -366.91,-37.01 -130.51,-89.33 -134.68,-280.79 -9.74,-389.32 12.53,-10.71 22.82,-18.36 32.42,-24.62 36.46,17.25 78.06,34.64 125.93,50.23 80.84,26.29 148.04,39.93 203.28,47.16 26.43,29.64 57.18,81.81 49.53,176.29 -10.44,128.15 -107.28,107.83 -34.51,177.27 m 1197.17,-695.84 c -21.57,11.97 -122.59,7.23 -193.55,-1.25 -135.25,-16 -281.21,-63.03 -313.19,-88.08 -58.17,-45.08 -31.76,-123.69 11.24,-155.97 120.49,-90.31 226.11,-150.83 337.57,-136.08 68.46,9.04 128.84,117.71 171.55,216.36 29.24,67.9 29.24,141.22 -13.62,165.02 m -461.82,802.28 c -7.77,-17.81 -20.03,-29.5 -1.67,-87.52 l 1.12,-3.34 2.92,-7.52 7.65,-17.39 c 33.12,-67.9 69.44,-131.9 130.23,-164.6 15.73,2.64 32.01,4.46 48.85,5.29 57.06,2.51 93.08,-6.54 115.9,-18.93 2.07,11.42 2.5,28.11 1.25,52.74 -4.44,85.99 16.98,232.23 -147.76,309.17 -62.2,28.94 -149.44,20.03 -178.52,-16.14 5.3,-0.7 10.01,-1.81 13.77,-3.07 43.97,-15.3 14.18,-30.46 6.26,-48.69 M 5919.13,4129.24 5777.21,4102.1 5504.62,6927.47 859.324,6387.19 1431.61,1728.8 l 543.75,79.19 c -43.41,62.17 -111.03,137.45 -226.52,233.72 -160.14,133.46 -103.52,360.11 -9.04,503.27 124.95,241.84 768.89,549.2 732.43,935.73 -13.08,140.53 -35.34,323.5 -165.44,448.86 -4.87,-52.04 3.9,-102.13 3.9,-102.13 0,0 -53.43,68.32 -80.01,161.54 -26.43,35.76 -47.16,47.17 -75.27,94.9 -20.03,-55.24 -17.39,-119.25 -17.39,-119.25 0,0 -43.69,103.52 -50.79,190.9 -25.88,-39.1 -32.42,-113.4 -32.42,-113.4 0,0 -56.77,163.22 -43.83,251.15 -25.88,76.53 -102.68,228.33 -80.98,573.39 141.79,-99.62 453.88,-75.96 575.48,103.8 40.35,59.55 68.05,222.07 -20.17,542.37 -56.63,205.37 -196.88,511.2 -251.56,627.24 l -6.54,-4.73 c 28.8,-93.5 88.21,-289.41 111.03,-384.44 69.01,-288.16 87.52,-388.48 55.1,-521.36 -27.55,-115.48 -93.64,-191.03 -261.17,-275.49 -167.52,-84.74 -389.87,121.46 -403.92,132.87 -162.79,130.1 -288.71,342.29 -302.77,445.39 -14.61,112.84 64.84,180.6 104.92,272.85 -57.33,-16.42 -121.2,-45.63 -121.2,-45.63 0,0 76.25,79.17 170.31,147.62 38.96,25.88 61.78,42.3 102.82,76.53 -59.41,0.97 -107.69,-0.7 -107.69,-0.7 0,0 99.07,53.71 201.75,92.81 -75.13,3.34 -147.07,0.55 -147.07,0.55 0,0 221.1,99.21 395.71,171.98 120.08,49.39 237.38,34.79 303.33,-60.8 86.54,-125.23 177.4,-193.27 369.97,-235.42 118.27,52.59 154.17,79.58 302.77,120.21 130.79,144.29 233.48,162.93 233.48,162.93 0,0 -50.93,-46.89 -64.57,-120.5 74.16,58.59 155.42,107.56 155.42,107.56 0,0 -31.44,-38.95 -60.8,-100.88 l 6.82,-10.15 c 86.54,52.04 188.25,93.09 188.25,93.09 0,0 -29.07,-36.88 -63.17,-84.6 65.26,0.55 197.58,-2.79 248.93,-8.63 303.16,-6.68 366.07,324.75 482.39,366.36 145.68,52.17 210.79,83.75 459.03,-160.85 213.01,-209.97 379.43,-585.78 296.77,-669.96 -69.28,-69.84 -205.92,27.27 -357.44,216.64 -80.01,100.32 -140.55,218.87 -168.92,369.56 -23.93,127.17 -117.02,200.91 -117.02,200.91 0,0 53.99,-120.77 53.99,-227.21 0,-58.16 7.25,-275.5 100.18,-397.52 -9.18,-17.81 -13.49,-88.22 -23.65,-101.71 -108.11,131.07 -340.34,224.85 -378.19,252.53 128.15,-105.33 422.71,-347.29 535.84,-579.23 107.01,-219.29 43.95,-420.34 98.08,-472.38 15.43,-14.89 230.14,-283.29 271.47,-418.11 72.06,-235.01 4.31,-481.99 -90.02,-635.18 l -263.41,-41.18 c -38.52,10.71 -64.53,16.14 -99.05,36.17 19.04,33.81 56.9,118.13 57.31,135.53 l -14.88,26.15 c -81.95,-116.46 -219.3,-229.58 -333.37,-294.56 -149.3,-84.87 -321.42,-71.79 -433.43,-37.01 -317.93,98.38 -618.61,313.9 -691.1,370.53 0,0 -2.23,-45.22 11.41,-55.38 80.14,-90.71 263.81,-254.76 441.35,-369.13 l -378.46,-41.75 178.94,-1397.37 c -79.32,-11.4 -91.7,-16.98 -178.52,-29.36 -76.53,271.18 -222.9,448.31 -382.91,551.41 -141.09,90.98 -335.75,111.45 -522.06,74.44 l -11.96,-13.91 c 129.54,13.51 282.45,-5.29 439.54,-105.06 154.17,-97.81 278.42,-350.35 324.2,-502.43 58.57,-194.38 99.06,-402.25 -58.58,-622.65 -112.15,-156.67 -439.54,-243.23 -704.05,-55.93 70.68,-113.96 166.13,-207.18 294.7,-224.71 190.9,-26.01 372.06,7.22 496.73,135.66 106.44,109.8 162.93,339.38 148.04,581.17 l 168.5,24.51 60.8,-433.98 2788.91,336.87 z m -2670.5,-641.57 350.89,48.41 c 56.77,-25.6 96.29,-35.34 164.34,-52.73 106.02,-27.69 228.74,-54.26 410.47,37.57 42.29,21.01 130.37,101.85 165.98,147.9 l 1437.6,261.58 146.65,-1780.41 -2462.91,-445.24 z m 2039.5,-590.91 -470.84,311.51 -392.8,-658.12 -456.78,133.97 -402.26,-615.82 20.6,-193.82 2186.99,404.21 -127.05,1370.65 -357.86,-752.58" /><path
         id="path18"
         style="fill:#703ba0;fill-opacity:1;fill-rule:evenodd;stroke:none"
         d="M 6791.26,429.379 V 185.32 c -44.67,-11.691 -84.74,-17.39 -119.79,-17.39 -236.82,0 -355.09,125.09 -355.09,375.402 0,231.109 125.51,346.609 376.23,346.609 104.75,0 202.16,-19.492 292.19,-58.461 v 175.04 c -90.03,33.97 -192.29,51.07 -306.81,51.07 -374.97,0 -562.67,-171.27 -562.67,-514.258 C 6115.32,181.301 6299.68,0 6668.4,0 c 126.89,0 232.21,18.5117 316.4,55.5117 V 600.949 h -312.66 l -65.38,-171.57 z M 5466.93,168.09 c 210.36,0 315.57,121.191 315.57,363.691 0,238.782 -105.21,358.289 -315.57,358.289 -215.79,0 -323.63,-119.507 -323.63,-358.289 0,-242.5 107.84,-363.691 323.63,-363.691 m -524.71,359.23 c 0,353.559 175.04,530.27 524.71,530.27 344.37,0 516.47,-176.711 516.47,-530.27 C 5983.4,175.859 5811.3,0 5466.93,0 5132.71,0 4957.96,175.859 4942.22,527.32 m -880.06,-352 h 230.15 c 216.65,0 325.17,127.309 325.17,382.059 0,216.922 -108.52,325.32 -325.17,325.32 H 4062.16 Z M 4321.53,7.51953 H 3868.62 V 1050.08 h 452.91 c 326.43,0 489.62,-164.33 489.62,-492.83 0,-366.359 -163.19,-549.73047 -489.62,-549.73047 m -1487.4,0 H 2635.3 L 3078.88,1050.08 h 208.15 L 3740.07,7.51953 H 3531.78 L 3400.29,291.898 h -334.63 l 66.37,167.543 h 217.06 l -171,391.68 z M 1941.83,1050.08 h 792.82 V 882.422 H 2435.08 V 7.51953 H 2241.54 V 882.422 H 1941.83 Z M 1145.4,7.51953 H 946.566 L 1390,1050.08 h 208.15 L 2051.33,7.51953 H 1843.04 L 1711.55,291.898 h -334.63 l 66.51,167.543 h 217.06 l -171,391.68 z M 193.684,175.32 h 230 c 216.777,0 325.027,127.309 325.027,382.059 0,216.922 -108.25,325.32 -325.027,325.32 h -230 z M 452.898,7.51953 H 0 V 1050.08 h 452.898 c 326.282,0 489.629,-164.33 489.629,-492.83 C 942.527,190.891 779.18,7.51953 452.898,7.51953" /></g></g></svg>