<?xml version="1.0" encoding="UTF-8" standalone="no"?>
<!-- Created with Inkscape (http://www.inkscape.org/) -->
<svg xmlns:dc="http://purl.org/dc/elements/1.1/" xmlns:cc="http://creativecommons.org/ns#" xmlns:rdf="http://www.w3.org/1999/02/22-rdf-syntax-ns#" xmlns:svg="http://www.w3.org/2000/svg" xmlns="http://www.w3.org/2000/svg" version="1.1" width="295" height="140" id="svg2" xml:space="preserve"><metadata id="metadata8"><rdf:RDF><cc:Work rdf:about=""><dc:format>image/svg+xml</dc:format><dc:type rdf:resource="http://purl.org/dc/dcmitype/StillImage"/><dc:title/></cc:Work></rdf:RDF></metadata><defs id="defs6"><clipPath id="clipPath16"><path d="M 0,0 612,0 612,792 0,792 0,0 z" id="path18"/></clipPath><clipPath id="clipPath34"><path d="m 321.489,169.063 233.992,1.94 -1.245,150.198 -233.993,-1.941 1.246,-150.197 z" id="path36"/></clipPath><clipPath id="clipPath42"><path d="M 0,0 612,0 612,792 0,792 0,0 z" id="path44"/></clipPath><clipPath id="clipPath78"><path d="M 0,0 612,0 612,792 0,792 0,0 z" id="path80"/></clipPath></defs><g transform="matrix(1.25,0,0,-1.25,0,140)" id="g10"><g transform="translate(-321.18684,-206.63769)" id="g30"><g clip-path="url(#clipPath34)" id="g32"><g transform="translate(0,2.2460618)" id="g38"><g clip-path="url(#clipPath42)" id="g40"><g transform="translate(552.8532,297.5448)" id="g46"><path d="m 0,0 -0.14,16.928 -42.187,-0.35 0.14,-16.928 9.587,0.08 -16.915,-21.226 -17.283,20.942 9.628,0.08 -0.14,16.927 -31.517,-0.261 0.157,-18.953 27.516,-33.34 -26.958,-33.827 0.028,-3.381 12.986,0.108 0.144,-17.348 18.53,0.154 -0.144,17.348 -10.725,-0.089 18.03,22.625 10e-4,0 18.423,-22.323 -10.746,-0.089 0.144,-17.348 42.187,0.35 -0.144,17.348 -7.912,-0.066 -30.313,36.733 L -9.068,-0.075 0,0" id="path48" style="fill:#49a0dd;fill-opacity:1;fill-rule:nonzero;stroke:none"/></g><g transform="translate(453.1595,313.64661)" id="g50"><path d="m 0,0 0.14,-16.928 9.224,0.077 1.66,-2.011 L 10.867,0.09 0,0" id="path52" style="fill:#2c67aa;fill-opacity:1;fill-rule:nonzero;stroke:none"/></g><g transform="translate(464.76871,224.23621)" id="g54"><path d="M 0,0 -0.028,3.381 -2.74,-0.023 -10.867,-0.09 -10.723,-17.438 13.131,-17.24 12.987,0.108 0,0" id="path56" style="fill:#2c67aa;fill-opacity:1;fill-rule:nonzero;stroke:none"/></g><g transform="translate(386.1151,231.5408)" id="g58"><path d="M 0,0 14.979,0.124 C 13.238,-4.287 10.779,-8.317 7.732,-11.807 4.523,-8.369 1.894,-4.381 0,0" id="path60" style="fill:#731b2b;fill-opacity:1;fill-rule:nonzero;stroke:none"/></g><g transform="translate(385.957,254.73621)" id="g62"><path d="m 0,0 -2.673,-0.022 c -0.38,-2.309 -0.569,-4.682 -0.549,-7.101 0.019,-2.282 0.222,-4.519 0.596,-6.698 l 2.851,0.023 c 0.569,2.133 0.862,4.385 0.843,6.71 C 1.048,-4.619 0.676,-2.238 0,0 z m 0,0 c 0.676,-2.238 1.048,-4.619 1.068,-7.088 0.019,-2.325 -0.274,-4.577 -0.843,-6.71 l 14.585,0.121 c -0.632,2.123 -0.978,4.369 -0.997,6.695 -0.021,2.469 0.33,4.855 1.001,7.105 L 0,0 z M 7.426,20.936 C 3.178,16.228 -0.002,10.539 -1.735,4.256 -1.031,2.91 -0.448,1.486 0,0 l 14.814,0.123 c 0.436,1.47 1.011,2.882 1.707,4.221 -1.753,6.28 -4.896,11.938 -9.095,16.592" id="path64" style="fill:#731b2b;fill-opacity:1;fill-rule:nonzero;stroke:none"/></g><g transform="translate(384.22211,258.9922)" id="g66"><path d="m 0,0 c -0.388,-1.397 -0.701,-2.826 -0.938,-4.278 l 2.673,0.022 C 1.286,-2.77 0.704,-1.346 0,0 z m 63.593,-44.768 0.062,-7.477 6.169,0.051 -0.108,12.962 c -1.846,-2.05 -3.895,-3.906 -6.123,-5.536 z M 78.302,37.803 69.078,37.727 68.937,54.654 51.516,54.51 51.656,37.582 62.909,37.676 63.03,23.084 C 56.448,27.736 48.388,30.431 39.564,30.358 27.486,30.258 16.658,24.995 9.161,16.68 13.36,12.026 16.503,6.368 18.256,0.088 22.247,7.77 30.247,13.046 39.508,13.123 52.852,13.234 63.201,2.502 63.311,-10.842 l 0.002,-0.132 c 0.043,-13.284 -10.104,-24.114 -23.405,-24.225 -9.26,-0.076 -17.347,5.066 -21.465,12.681 0,0 0,0 0,0 -0.782,1.446 -1.421,2.981 -1.898,4.585 l -17.436,-0.144 c 0.271,-1.586 0.632,-3.139 1.079,-4.656 0.474,-1.616 1.045,-3.191 1.705,-4.718 l 14.979,0.124 c -1.741,-4.411 -4.2,-8.441 -7.247,-11.932 7.634,-8.189 18.548,-13.271 30.625,-13.171 8.825,0.073 16.839,2.901 23.343,7.662 2.228,1.63 4.277,3.486 6.123,5.536 l -0.036,4.386 8.126,0.067 2.713,3.404 -0.558,67.167 -1.659,2.011" id="path68" style="fill:#868484;fill-opacity:1;fill-rule:nonzero;stroke:none"/></g><g transform="translate(363.2773,288.84821)" id="g70"><path d="m 0,0 c -20.443,-0.17 -37.301,-15.127 -40.503,-34.636 l 17.488,0.145 c 2.947,9.905 12.084,17.166 22.959,17.256 9.234,0.077 17.035,-5.039 21.001,-12.621 1.733,6.283 4.913,11.972 9.161,16.68 C 22.724,-4.985 12.078,0.1 0,0 z m 17.984,-57.348 c -4.233,-4.982 -10.48,-8.149 -17.639,-8.208 -11.019,-0.092 -20.375,7.207 -23.364,17.266 l 43.073,0.357 c -0.374,2.179 -0.577,4.416 -0.596,6.698 -0.02,2.419 0.168,4.792 0.549,7.101 l -60.51,-0.502 c -0.38,-2.309 -0.569,-4.682 -0.549,-7.101 0.019,-2.282 0.222,-4.519 0.596,-6.698 l 0,0 c 3.366,-19.648 20.563,-34.524 41.143,-34.353 12.077,0.1 22.638,5.361 29.883,13.673 -3.209,3.439 -5.838,7.426 -7.732,11.808 l -4.854,-0.041 z m 22.162,23.381 c -0.246,1.426 -0.562,2.828 -0.945,4.199 -0.697,-1.339 -1.271,-2.751 -1.707,-4.221 -0.672,-2.25 -1.022,-4.636 -1.002,-7.105 0.02,-2.326 0.366,-4.572 0.998,-6.695 l 2.834,0.024 c 0.32,2.185 0.477,4.425 0.458,6.706 -0.02,2.419 -0.236,4.789 -0.636,7.092" id="path72" style="fill:#cf1f65;fill-opacity:1;fill-rule:nonzero;stroke:none"/></g></g></g></g></g></g></svg>