<?xml version="1.0" encoding="utf-8"?>
<!-- Generator: Adobe Illustrator 21.1.0, SVG Export Plug-In . SVG Version: 6.00 Build 0)  -->
<svg version="1.1" id="Layer_1" xmlns="http://www.w3.org/2000/svg" xmlns:xlink="http://www.w3.org/1999/xlink" x="0px" y="0px"
	 viewBox="0 0 112 112" style="enable-background:new 0 0 112 112;" xml:space="preserve">
<style type="text/css">
	.st0{fill:#FFFFFF;}
	.st1{fill:#00A9E5;}
	.st2{fill:#353535;}
	.st3{fill:#00BFB3;}
	.st4{fill:#019B8F;}
	.st5{fill:#F9B110;}
	.st6{fill:#FED10A;}
</style>
<g id="Elasticsearch_3_">
	<g>
		<path class="st1" d="M73.1,44H52.2c0.1,0.5,0.3,1,0.4,1.4c0.7,2.4,1.1,4.9,1.3,7.5C54,53.9,54,55,54,56s0,2.1-0.1,3.1
			c-0.2,2.6-0.6,5.1-1.3,7.5c-0.1,0.5-0.3,1-0.4,1.4h20.9C79.7,68,85,62.6,85,56C85,49.4,79.7,44,73.1,44z"/>
		<path class="st2" d="M53.9,59.1C54,58.1,54,57,54,56s0-2.1-0.1-3.1c-0.2-2.6-0.6-5.1-1.3-7.5c-0.1-0.5-0.3-1-0.4-1.4H19.8
			c-1.2,3.8-1.8,7.8-1.8,12s0.6,8.2,1.8,12h32.3c0.1-0.5,0.3-1,0.4-1.4C53.2,64.2,53.7,61.7,53.9,59.1z"/>
	</g>
	<g>
		<path class="st3" d="M76.7,72h-26c-0.8,1.8-1.7,3.5-2.7,5.1c-1.5,2.5-3.3,4.7-5.3,6.8c-0.7,0.7-1.4,1.3-2.1,2
			c-1.4,1.3-3,2.4-4.6,3.5c6.3,4.2,13.9,6.6,22,6.6c13.9,0,26.1-7.1,33.3-17.8C87.6,74.4,82.4,72,76.7,72z"/>
		<path class="st4" d="M48,77.1c1-1.6,1.9-3.3,2.7-5.1H21.3c3.1,7.1,8.2,13.2,14.7,17.4c1.6-1.1,3.1-2.2,4.6-3.5
			c0.7-0.6,1.4-1.3,2.1-2C44.6,81.9,46.4,79.6,48,77.1z"/>
	</g>
	<g>
		<path class="st5" d="M42.6,28.1c-0.7-0.7-1.4-1.3-2.1-2c-1.4-1.3-3-2.4-4.6-3.5C29.6,26.8,24.5,32.9,21.3,40h29.3
			c-0.8-1.8-1.7-3.5-2.7-5.1C46.4,32.4,44.6,30.1,42.6,28.1z"/>
		<path class="st6" d="M58,16c-8.1,0-15.7,2.4-22,6.6c1.6,1.1,3.1,2.2,4.6,3.5c0.7,0.6,1.4,1.3,2.1,2c2,2.1,3.8,4.3,5.3,6.8
			c1,1.6,1.9,3.3,2.7,5.1h26c5.7,0,10.9-2.4,14.6-6.2C84.1,23.1,71.9,16,58,16z"/>
	</g>
</g>
</svg>
