<?xml version="1.0" encoding="UTF-8" standalone="no"?>
<svg
   xmlns:dc="http://purl.org/dc/elements/1.1/"
   xmlns:cc="http://creativecommons.org/ns#"
   xmlns:rdf="http://www.w3.org/1999/02/22-rdf-syntax-ns#"
   xmlns:svg="http://www.w3.org/2000/svg"
   xmlns="http://www.w3.org/2000/svg"
   viewBox="0 0 2589.0667 737.64001"
   height="737.64001"
   width="2589.0667"
   xml:space="preserve"
   id="svg2"
   version="1.1"><metadata
     id="metadata8"><rdf:RDF><cc:Work
         rdf:about=""><dc:format>image/svg+xml</dc:format><dc:type
           rdf:resource="http://purl.org/dc/dcmitype/StillImage" /><dc:title></dc:title></cc:Work></rdf:RDF></metadata><defs
     id="defs6"><clipPath
       id="clipPath20"
       clipPathUnits="userSpaceOnUse"><path
         id="path18"
         d="m 1332.5,138.48 -144.68,47.911 c 0,0 18.44,732.218 -245.625,783.48 -174.148,201.779 26.785,8618.939 659.415,28.859 0,0 -216.54,-108.742 -257.52,-293.359 C 1303.12,520.629 1332.5,138.48 1332.5,138.48 Z" /></clipPath><linearGradient
       id="linearGradient28"
       spreadMethod="pad"
       gradientTransform="matrix(1663.02,-561.079,-506.132,-1492.43,375.498,2781.4)"
       gradientUnits="userSpaceOnUse"
       y2="0"
       x2="1"
       y1="0"
       x1="0"><stop
         id="stop22"
         offset="0"
         style="stop-opacity:1;stop-color:#929669" /><stop
         id="stop24"
         offset="0.230769"
         style="stop-opacity:1;stop-color:#929669" /><stop
         id="stop26"
         offset="1"
         style="stop-opacity:1;stop-color:#fdfcf0" /></linearGradient><clipPath
       id="clipPath38"
       clipPathUnits="userSpaceOnUse"><path
         id="path36"
         d="m 1410.49,845.57 c 0,0 1257.15,827.99 962.62,2547.57 -283.64,1249.3 -953.28,1659.97 -1025.25,1816.79 -79.21,110.95 -159,307.61 -159,307.61 l 53.47,-3480.89 c 0,0 -110.62,-1062.869 168.16,-1191.08 z" /></clipPath><linearGradient
       id="linearGradient44"
       spreadMethod="pad"
       gradientTransform="matrix(1164.55,-4520.79,-4864.19,-779.865,984.75,5484.81)"
       gradientUnits="userSpaceOnUse"
       y2="0"
       x2="1"
       y1="0"
       x1="0"><stop
         id="stop40"
         offset="0"
         style="stop-opacity:1;stop-color:#44aa3a" /><stop
         id="stop42"
         offset="1"
         style="stop-opacity:1;stop-color:#3d9439" /></linearGradient><clipPath
       id="clipPath54"
       clipPathUnits="userSpaceOnUse"><path
         id="path52"
         d="M 0,0 H 19418 V 5532 H 0 Z" /></clipPath><clipPath
       id="clipPath60"
       clipPathUnits="userSpaceOnUse"><path
         id="path58"
         d="m 1114.22,799.309 c 0,0 -1179.2552,804.461 -1111.39969,2223.871 C 70.6758,4442.62 903.574,5140.51 1065.79,5267.13 c 104.87,111.82 109.21,154.9 117.32,265.17 73.51,-157.87 61.3,-2358.51 69.08,-2615.71 30.23,-1001.27 -55.45,-1928.281 -137.97,-2117.281 z" /></clipPath><linearGradient
       id="linearGradient66"
       spreadMethod="pad"
       gradientTransform="matrix(2038.22,463.103,636.906,-1903.08,-121.124,2877.3)"
       gradientUnits="userSpaceOnUse"
       y2="0"
       x2="1"
       y1="0"
       x1="0"><stop
         id="stop62"
         offset="0"
         style="stop-opacity:1;stop-color:#40a73c" /><stop
         id="stop64"
         offset="1"
         style="stop-opacity:1;stop-color:#5ebc45" /></linearGradient></defs><g
     transform="matrix(1.3333333,0,0,-1.3333333,0,737.64)"
     id="g10"><g
       transform="scale(0.1)"
       id="g12"><g
         id="g14"><g
           clip-path="url(#clipPath20)"
           id="g16"><path
             id="path30"
             style="fill:url(#linearGradient28);fill-opacity:1;fill-rule:nonzero;stroke:none"
             d="m 1332.5,138.48 -144.68,47.911 c 0,0 18.44,732.218 -245.625,783.48 -174.148,201.779 26.785,8618.939 659.415,28.859 0,0 -216.54,-108.742 -257.52,-293.359 C 1303.12,520.629 1332.5,138.48 1332.5,138.48" /></g></g><g
         id="g32"><g
           clip-path="url(#clipPath38)"
           id="g34"><path
             id="path46"
             style="fill:url(#linearGradient44);fill-opacity:1;fill-rule:nonzero;stroke:none"
             d="m 1410.49,845.57 c 0,0 1257.15,827.99 962.62,2547.57 -283.64,1249.3 -953.28,1659.97 -1025.25,1816.79 -79.21,110.95 -159,307.61 -159,307.61 l 53.47,-3480.89 c 0,0 -110.62,-1062.869 168.16,-1191.08" /></g></g><g
         id="g48"><g
           clip-path="url(#clipPath54)"
           id="g50"><g
             clip-path="url(#clipPath60)"
             id="g56"><path
               id="path68"
               style="fill:url(#linearGradient66);fill-opacity:1;fill-rule:nonzero;stroke:none"
               d="m 1113,799 v 1 h -2 v 1 h -1 v 1 h -2 v 1 h -1 v 1 h -1 v 1 h -2 v 1 h -1 v 1 h -2 v 1 h -1 v 1 h -1 v 1 h -2 v 1 h -1 v 1 h -1 v 1 h -2 v 1 h -1 v 1 h -1 v 1 h -2 v 1 h -1 v 1 h -2 v 1 h -1 v 1 h -1 v 1 h -2 v 1 h -1 v 1 h -1 v 1 h -2 v 1 h -1 v 1 h -1 v 1 h -2 v 1 h -1 v 1 h -1 v 1 h -1 v 1 h -2 v 1 h -1 v 1 h -1 v 1 h -2 v 1 h -1 v 1 h -1 v 1 h -2 v 1 h -1 v 1 h -1 v 1 h -1 v 1 h -2 v 1 h -1 v 1 h -1 v 1 h -2 v 1 h -1 v 1 h -1 v 1 h -1 v 1 h -2 v 1 h -1 v 1 h -1 v 1 h -1 v 1 h -2 v 1 h -1 v 1 h -1 v 1 h -1 v 1 h -2 v 1 h -1 v 1 h -1 v 1 h -1 v 1 h -2 v 1 h -1 v 1 h -1 v 1 h -1 v 1 h -2 v 1 h -1 v 1 h -1 v 1 h -1 v 1 h -2 v 1 h -1 v 1 h -1 v 1 h -1 v 1 h -2 v 1 h -1 v 1 h -1 v 1 h -1 v 1 h -1 v 1 h -2 v 1 h -1 v 1 h -1 v 1 h -1 v 1 h -2 v 1 h -1 v 1 h -1 v 1 h -1 v 1 h -1 v 1 h -2 v 1 h -1 v 1 h -1 v 1 h -1 v 1 h -1 v 1 h -2 v 1 h -1 v 1 h -1 v 1 h -1 v 1 h -1 v 1 h -2 v 1 h -1 v 1 h -1 v 1 h -1 v 1 h -1 v 1 h -1 v 1 h -2 v 1 h -1 v 1 h -1 v 1 h -1 v 1 h -1 v 1 h -2 v 1 h -1 v 1 h -1 v 1 h -1 v 1 h -1 v 1 h -1 v 1 h -2 v 1 h -1 v 1 h -1 v 1 h -1 v 1 h -1 v 1 h -1 v 1 h -1 v 1 h -2 v 1 h -1 v 1 h -1 v 1 h -1 v 1 h -1 v 1 h -1 v 1 h -2 v 1 h -1 v 1 h -1 v 1 h -1 v 1 h -1 v 1 h -1 v 1 h -1 v 1 h -2 v 1 h -1 v 1 h -1 v 1 h -1 v 1 h -1 v 1 h -1 v 1 h -1 v 1 h -1 v 1 h -2 v 1 h -1 v 1 h -1 v 1 h -1 v 1 h -1 v 1 h -1 v 1 h -1 v 1 h -1 v 1 h -2 v 1 h -1 v 1 h -1 v 1 h -1 v 1 h -1 v 1 h -1 v 1 h -1 v 1 h -1 v 1 h -1 v 1 h -2 v 1 h -1 v 1 h -1 v 1 h -1 v 1 h -1 v 1 h -1 v 1 h -1 v 1 h -1 v 1 h -1 v 1 h -2 v 1 h -1 v 1 h -1 v 1 h -1 v 1 h -1 v 1 h -1 v 1 h -1 v 1 h -1 v 1 h -1 v 1 h -1 v 1 h -1 v 1 h -2 v 1 h -1 v 1 h -1 v 1 h -1 v 1 h -1 v 1 h -1 v 1 h -1 v 1 h -1 v 1 h -1 v 1 h -1 v 1 h -1 v 1 h -1 v 1 h -1 v 1 h -2 v 1 h -1 v 1 h -1 v 1 h -1 v 1 h -1 v 1 h -1 v 1 h -1 v 1 h -1 v 1 h -1 v 1 h -1 v 1 h -1 v 1 h -1 v 1 h -1 v 1 h -1 v 1 h -1 v 1 h -2 v 1 h -1 v 1 h -1 v 1 h -1 v 1 h -1 v 1 h -1 v 1 h -1 v 1 h -1 v 1 h -1 v 1 h -1 v 1 h -1 v 1 h -1 v 1 h -1 v 1 h -1 v 1 h -1 v 1 h -1 v 1 h -1 v 1 h -1 v 1 h -1 v 1 h -1 v 1 h -1 v 1 h -1 v 1 h -2 v 1 h -1 v 1 h -1 v 1 h -1 v 1 h -1 v 1 h -1 v 1 h -1 v 1 h -1 v 1 h -1 v 1 h -1 v 1 h -1 v 1 h -1 v 1 h -1 v 1 h -1 v 1 h -1 v 1 h -1 v 1 h -1 v 1 h -1 v 1 h -1 v 1 h -1 v 1 h -1 v 1 h -1 v 1 h -1 v 1 h -1 v 1 h -1 v 1 h -1 v 1 h -1 v 1 h -1 v 1 h -1 v 1 h -1 v 1 h -1 v 1 h -1 v 1 h -1 v 1 h -1 v 1 h -1 v 1 h -1 v 1 h -1 v 1 h -1 v 1 h -1 v 1 h -1 v 1 h -1 v 1 h -1 v 1 h -1 v 1 h -1 v 1 h -1 v 1 h -1 v 1 h -1 v 1 h -1 v 1 h -1 v 1 h -1 v 1 h -1 v 1 h -1 v 1 h -1 v 1 h -1 v 1 h -1 v 1 h -1 v 1 h -1 v 1 h -1 v 1 h -1 v 1 h -1 v 1 h -1 v 1 h -1 v 1 h -1 v 1 h -1 v 1 h -1 v 1 h -1 v 1 h -1 v 1 h -1 v 2 h -1 v 1 h -1 v 1 h -1 v 1 h -1 v 1 h -1 v 1 h -1 v 1 h -1 v 1 h -1 v 1 h -1 v 1 h -1 v 1 h -1 v 1 h -1 v 1 h -1 v 1 h -1 v 1 h -1 v 1 h -1 v 1 h -1 v 1 h -1 v 1 h -1 v 1 h -1 v 1 h -1 v 1 h -1 v 1 h -1 v 2 h -1 v 1 h -1 v 1 h -1 v 1 h -1 v 1 h -1 v 1 h -1 v 1 h -1 v 1 h -1 v 1 h -1 v 1 h -1 v 1 h -1 v 1 h -1 v 1 h -1 v 1 h -1 v 1 h -1 v 1 h -1 v 2 h -1 v 1 h -1 v 1 h -1 v 1 h -1 v 1 h -1 v 1 h -1 v 1 h -1 v 1 h -1 v 1 h -1 v 1 h -1 v 1 h -1 v 1 h -1 v 1 h -1 v 1 h -1 v 2 h -1 v 1 h -1 v 1 h -1 v 1 h -1 v 1 h -1 v 1 h -1 v 1 h -1 v 1 h -1 v 1 h -1 v 1 h -1 v 2 h -1 v 1 h -1 v 1 h -1 v 1 h -1 v 1 h -1 v 1 h -1 v 1 h -1 v 1 h -1 v 1 h -1 v 1 h -1 v 2 h -1 v 1 h -1 v 1 h -1 v 1 h -1 v 1 h -1 v 1 h -1 v 1 h -1 v 1 h -1 v 1 h -1 v 1 h -1 v 2 h -1 v 1 h -1 v 1 h -1 v 1 h -1 v 1 h -1 v 1 h -1 v 1 h -1 v 1 h -1 v 2 h -1 v 1 h -1 v 1 h -1 v 1 h -1 v 1 h -1 v 1 h -1 v 1 h -1 v 2 h -1 v 1 h -1 v 1 h -1 v 1 h -1 v 1 h -1 v 1 h -1 v 1 h -1 v 1 h -1 v 2 h -1 v 1 h -1 v 1 h -1 v 1 h -1 v 1 h -1 v 1 h -1 v 1 h -1 v 2 h -1 v 1 h -1 v 1 h -1 v 1 h -1 v 1 h -1 v 1 h -1 v 2 h -1 v 1 h -1 v 1 h -1 v 1 h -1 v 1 h -1 v 1 h -1 v 2 h -1 v 1 h -1 v 1 h -1 v 1 h -1 v 1 h -1 v 1 h -1 v 2 h -1 v 1 h -1 v 1 h -1 v 1 h -1 v 1 h -1 v 1 h -1 v 2 h -1 v 1 h -1 v 1 h -1 v 1 h -1 v 1 h -1 v 2 h -1 v 1 h -1 v 1 h -1 v 1 h -1 v 1 h -1 v 1 h -1 v 2 h -1 v 1 h -1 v 1 h -1 v 1 h -1 v 1 h -1 v 2 h -1 v 1 h -1 v 1 h -1 v 1 h -1 v 1 h -1 v 2 h -1 v 1 h -1 v 1 h -1 v 1 h -1 v 1 h -1 v 2 h -1 v 1 h -1 v 1 h -1 v 1 h -1 v 2 h -1 v 1 h -1 v 1 h -1 v 1 h -1 v 1 h -1 v 2 h -1 v 1 h -1 v 1 h -1 v 1 h -1 v 2 h -1 v 1 h -1 v 1 h -1 v 1 h -1 v 2 h -1 v 1 h -1 v 1 h -1 v 1 h -1 v 1 h -1 v 2 h -1 v 1 h -1 v 1 h -1 v 1 h -1 v 2 h -1 v 1 h -1 v 1 h -1 v 1 h -1 v 2 h -1 v 1 h -1 v 1 h -1 v 1 h -1 v 2 h -1 v 1 h -1 v 1 h -1 v 1 h -1 v 2 h -1 v 1 h -1 v 1 h -1 v 2 h -1 v 1 h -1 v 1 h -1 v 1 h -1 v 2 h -1 v 1 h -1 v 1 h -1 v 1 h -1 v 2 h -1 v 1 h -1 v 1 h -1 v 1 h -1 v 2 h -1 v 1 h -1 v 1 h -1 v 2 h -1 v 1 h -1 v 1 h -1 v 2 h -1 v 1 h -1 v 1 h -1 v 1 h -1 v 2 h -1 v 1 h -1 v 1 h -1 v 2 h -1 v 1 h -1 v 1 h -1 v 2 h -1 v 1 h -1 v 1 h -1 v 1 h -1 v 2 h -1 v 1 h -1 v 1 h -1 v 2 h -1 v 1 h -1 v 1 h -1 v 2 h -1 v 1 h -1 v 1 h -1 v 2 h -1 v 1 h -1 v 1 h -1 v 2 h -1 v 1 h -1 v 1 h -1 v 2 h -1 v 1 h -1 v 1 h -1 v 2 h -1 v 1 h -1 v 1 h -1 v 2 h -1 v 1 h -1 v 1 h -1 v 2 h -1 v 1 h -1 v 1 h -1 v 2 h -1 v 1 h -1 v 1 h -1 v 2 h -1 v 1 h -1 v 1 h -1 v 2 h -1 v 1 h -1 v 2 h -1 v 1 h -1 v 1 h -1 v 2 h -1 v 1 h -1 v 2 h -1 v 1 h -1 v 1 h -1 v 2 h -1 v 1 h -1 v 1 h -1 v 2 h -1 v 1 h -1 v 2 h -1 v 1 h -1 v 1 h -1 v 2 h -1 v 1 h -1 v 2 h -1 v 1 h -1 v 1 h -1 v 2 h -1 v 1 h -1 v 2 h -1 v 1 h -1 v 1 h -1 v 2 h -1 v 1 h -1 v 2 h -1 v 1 h -1 v 1 h -1 v 2 h -1 v 1 h -1 v 2 h -1 v 1 h -1 v 2 h -1 v 1 h -1 v 2 h -1 v 1 h -1 v 1 h -1 v 2 h -1 v 1 h -1 v 2 h -1 v 1 h -1 v 2 h -1 v 1 h -1 v 1 h -1 v 2 h -1 v 1 h -1 v 2 h -1 v 1 h -1 v 2 h -1 v 1 h -1 v 2 h -1 v 1 h -1 v 2 h -1 v 1 h -1 v 2 h -1 v 1 h -1 v 1 h -1 v 2 h -1 v 1 h -1 v 2 h -1 v 1 h -1 v 2 h -1 v 1 h -1 v 2 h -1 v 1 h -1 v 2 h -1 v 1 h -1 v 2 h -1 v 1 h -1 v 2 h -1 v 1 h -1 v 2 h -1 v 1 h -1 v 2 h -1 v 1 h -1 v 2 h -1 v 1 h -1 v 2 h -1 v 1 h -1 v 2 h -1 v 1 h -1 v 2 h -1 v 2 h -1 v 1 h -1 v 2 h -1 v 1 h -1 v 2 h -1 v 1 h -1 v 2 h -1 v 1 h -1 v 2 h -1 v 1 h -1 v 2 h -1 v 1 h -1 v 2 h -1 v 2 h -1 v 1 h -1 v 2 h -1 v 1 h -1 v 2 h -1 v 1 h -1 v 2 h -1 v 1 h -1 v 2 h -1 v 2 h -1 v 1 h -1 v 2 h -1 v 1 h -1 v 2 h -1 v 2 h -1 v 1 h -1 v 2 h -1 v 1 h -1 v 2 h -1 v 2 h -1 v 1 h -1 v 2 h -1 v 1 h -1 v 2 h -1 v 2 h -1 v 1 h -1 v 2 h -1 v 1 h -1 v 2 h -1 v 2 h -1 v 1 h -1 v 2 h -1 v 1 h -1 v 2 h -1 v 2 h -1 v 1 h -1 v 2 h -1 v 2 h -1 v 1 h -1 v 2 h -1 v 2 h -1 v 1 h -1 v 2 h -1 v 2 h -1 v 1 h -1 v 2 h -1 v 2 h -1 v 1 h -1 v 2 h -1 v 2 h -1 v 1 h -1 v 2 h -1 v 2 h -1 v 1 h -1 v 2 h -1 v 2 h -1 v 1 h -1 v 2 h -1 v 2 h -1 v 2 h -1 v 1 h -1 v 2 h -1 v 2 h -1 v 1 h -1 v 2 h -1 v 2 h -1 v 2 h -1 v 1 h -1 v 2 h -1 v 2 h -1 v 2 h -1 v 1 h -1 v 2 h -1 v 2 h -1 v 2 h -1 v 1 h -1 v 2 h -1 v 2 h -1 v 1 h -1 v 2 h -1 v 2 h -1 v 2 h -1 v 1 h -1 v 2 h -1 v 2 h -1 v 2 h -1 v 2 h -1 v 2 h -1 v 1 h -1 v 2 h -1 v 2 h -1 v 2 h -1 v 2 h -1 v 1 h -1 v 2 h -1 v 2 h -1 v 2 h -1 v 2 h -1 v 1 h -1 v 2 h -1 v 2 h -1 v 2 h -1 v 2 h -1 v 1 h -1 v 2 h -1 v 2 h -1 v 2 h -1 v 2 h -1 v 2 h -1 v 2 h -1 v 1 h -1 v 2 h -1 v 2 h -1 v 2 h -1 v 2 h -1 v 2 h -1 v 2 h -1 v 2 h -1 v 2 h -1 v 2 h -1 v 1 h -1 v 2 h -1 v 2 h -1 v 2 h -1 v 2 h -1 v 2 h -1 v 2 h -1 v 2 h -1 v 2 h -1 v 1 h -1 v 2 h -1 v 2 h -1 v 2 h -1 v 2 h -1 v 2 h -1 v 2 h -1 v 2 h -1 v 2 h -1 v 2 h -1 v 2 h -1 v 2 h -1 v 2 h -1 v 2 h -1 v 2 h -1 v 2 h -1 v 2 h -1 v 2 h -1 v 2 h -1 v 2 h -1 v 2 h -1 v 2 h -1 v 2 h -1 v 2 h -1 v 2 h -1 v 2 h -1 v 2 h -1 v 2 h -1 v 2 h -1 v 2 h -1 v 3 h -1 v 2 h -1 v 2 h -1 v 2 h -1 v 2 h -1 v 2 h -1 v 2 h -1 v 2 h -1 v 2 h -1 v 2 h -1 v 2 h -1 v 2 h -1 v 3 h -1 v 2 h -1 v 2 h -1 v 2 h -1 v 2 h -1 v 2 h -1 v 2 h -1 v 2 h -1 v 3 h -1 v 2 h -1 v 2 h -1 v 2 h -1 v 2 h -1 v 3 h -1 v 2 h -1 v 2 h -1 v 2 h -1 v 2 h -1 v 3 h -1 v 2 h -1 v 2 h -1 v 2 h -1 v 2 h -1 v 3 h -1 v 2 h -1 v 2 h -1 v 2 h -1 v 3 h -1 v 2 h -1 v 2 h -1 v 3 h -1 v 2 h -1 v 2 h -1 v 3 h -1 v 2 h -1 v 2 h -1 v 3 h -1 v 2 h -1 v 2 h -1 v 2 h -1 v 3 h -1 v 2 h -1 v 2 h -1 v 3 h -1 v 2 h -1 v 2 h -1 v 3 h -1 v 2 h -1 v 3 h -1 v 2 h -1 v 2 h -1 v 3 h -1 v 2 h -1 v 3 h -1 v 2 h -1 v 3 h -1 v 2 h -1 v 3 h -1 v 2 h -1 v 3 h -1 v 2 h -1 v 3 h -1 v 2 h -1 v 3 h -1 v 2 h -1 v 3 h -1 v 2 h -1 v 2 h -1 v 3 h -1 v 3 h -1 v 2 h -1 v 3 h -1 v 2 h -1 v 3 h -1 v 3 h -1 v 2 h -1 v 3 h -1 v 3 h -1 v 2 h -1 v 3 h -1 v 3 h -1 v 2 h -1 v 3 h -1 v 2 h -1 v 3 h -1 v 3 h -1 v 2 h -1 v 3 h -1 v 3 h -1 v 3 h -1 v 2 h -1 v 3 h -1 v 3 h -1 v 3 h -1 v 3 h -1 v 3 h -1 v 2 h -1 v 3 h -1 v 3 h -1 v 3 h -1 v 3 h -1 v 2 h -1 v 3 h -1 v 3 h -1 v 3 h -1 v 3 h -1 v 3 h -1 v 3 h -1 v 3 h -1 v 3 h -1 v 3 h -1 v 3 h -1 v 3 h -1 v 3 h -1 v 3 h -1 v 3 h -1 v 3 h -1 v 3 h -1 v 3 h -1 v 3 h -1 v 3 h -1 v 3 h -1 v 3 h -1 v 3 h -1 v 3 h -1 v 4 h -1 v 3 h -1 v 3 h -1 v 4 h -1 v 3 h -1 v 3 h -1 v 3 h -1 v 4 h -1 v 3 h -1 v 3 h -1 v 4 h -1 v 3 h -1 v 3 h -1 v 4 h -1 v 3 h -1 v 3 h -1 v 4 h -1 v 3 h -1 v 4 h -1 v 4 h -1 v 3 h -1 v 4 h -1 v 3 h -1 v 4 h -1 v 4 h -1 v 3 h -1 v 4 h -1 v 3 h -1 v 4 h -1 v 3 h -1 v 4 h -1 v 4 h -1 v 4 h -1 v 4 h -1 v 4 h -1 v 4 h -1 v 4 h -1 v 4 h -1 v 4 h -1 v 4 h -1 v 4 h -1 v 4 h -1 v 4 h -1 v 3 h -1 v 4 h -1 v 5 h -1 v 4 h -1 v 5 h -1 v 4 h -1 v 4 h -1 v 5 h -1 v 4 h -1 v 5 h -1 v 4 h -1 v 4 h -1 v 5 h -1 v 4 h -1 v 5 h -1 v 5 h -1 v 5 h -1 v 4 h -1 v 5 h -1 v 5 h -1 v 5 h -1 v 5 h -1 v 5 h -1 v 5 h -1 v 5 h -1 v 5 h -1 v 5 h -1 v 6 h -1 v 6 h -1 v 5 h -1 v 6 h -1 v 6 h -1 v 5 h -1 v 6 h -1 v 6 h -1 v 5 h -1 v 6 h -1 v 7 h -1 v 7 h -1 v 6 h -1 v 7 h -1 v 7 h -1 v 6 h -1 v 7 h -1 v 7 h -1 v 6 h -1 v 8 h -1 v 9 h -1 v 8 h -1 v 8 h -1 v 8 h -1 v 8 h -1 v 8 h -1 v 9 h -1 v 10 h -1 v 11 h -1 v 10 h -1 v 10 H 9 v 10 H 8 v 13 H 7 v 14 H 6 v 14 H 5 v 14 H 4 v 14 H 3 v 23 H 2 v 22 H 1 v 29 H 0 v 133 h 1 v 33 h 1 v 21 h 1 v 20 h 1 v 16 h 1 v 17 h 1 v 16 h 1 v 13 h 1 v 14 h 1 v 13 h 1 v 14 h 1 v 11 h 1 v 11 h 1 v 11 h 1 v 11 h 1 v 11 h 1 v 11 h 1 v 9 h 1 v 9 h 1 v 9 h 1 v 10 h 1 v 9 h 1 v 9 h 1 v 9 h 1 v 8 h 1 v 8 h 1 v 8 h 1 v 7 h 1 v 8 h 1 v 8 h 1 v 8 h 1 v 8 h 1 v 7 h 1 v 7 h 1 v 6 h 1 v 7 h 1 v 7 h 1 v 7 h 1 v 7 h 1 v 7 h 1 v 7 h 1 v 6 h 1 v 6 h 1 v 6 h 1 v 6 h 1 v 6 h 1 v 6 h 1 v 6 h 1 v 7 h 1 v 6 h 1 v 6 h 1 v 5 h 1 v 6 h 1 v 5 h 1 v 6 h 1 v 5 h 1 v 6 h 1 v 5 h 1 v 6 h 1 v 5 h 1 v 6 h 1 v 5 h 1 v 5 h 1 v 5 h 1 v 5 h 1 v 5 h 1 v 5 h 1 v 5 h 1 v 5 h 1 v 5 h 1 v 5 h 1 v 5 h 1 v 5 h 1 v 4 h 1 v 5 h 1 v 5 h 1 v 4 h 1 v 5 h 1 v 4 h 1 v 5 h 1 v 5 h 1 v 4 h 1 v 5 h 1 v 4 h 1 v 5 h 1 v 4 h 1 v 4 h 1 v 5 h 1 v 4 h 1 v 4 h 1 v 4 h 1 v 5 h 1 v 4 h 1 v 4 h 1 v 4 h 1 v 5 h 1 v 4 h 1 v 4 h 1 v 4 h 1 v 4 h 1 v 4 h 1 v 4 h 1 v 4 h 1 v 4 h 1 v 4 h 1 v 4 h 1 v 4 h 1 v 3 h 1 v 4 h 1 v 4 h 1 v 4 h 1 v 4 h 1 v 4 h 1 v 4 h 1 v 3 h 1 v 4 h 1 v 4 h 1 v 3 h 1 v 4 h 1 v 4 h 1 v 3 h 1 v 4 h 1 v 4 h 1 v 3 h 1 v 4 h 1 v 4 h 1 v 3 h 1 v 4 h 1 v 3 h 1 v 3 h 1 v 4 h 1 v 3 h 1 v 4 h 1 v 3 h 1 v 4 h 1 v 3 h 1 v 3 h 1 v 4 h 1 v 3 h 1 v 4 h 1 v 3 h 1 v 4 h 1 v 3 h 1 v 3 h 1 v 3 h 1 v 4 h 1 v 3 h 1 v 3 h 1 v 3 h 1 v 4 h 1 v 3 h 1 v 3 h 1 v 3 h 1 v 3 h 1 v 4 h 1 v 3 h 1 v 3 h 1 v 3 h 1 v 3 h 1 v 3 h 1 v 4 h 1 v 3 h 1 v 3 h 1 v 3 h 1 v 3 h 1 v 3 h 1 v 3 h 1 v 3 h 1 v 3 h 1 v 3 h 1 v 3 h 1 v 3 h 1 v 3 h 1 v 3 h 1 v 3 h 1 v 3 h 1 v 3 h 1 v 3 h 1 v 3 h 1 v 3 h 1 v 2 h 1 v 3 h 1 v 3 h 1 v 3 h 1 v 3 h 1 v 3 h 1 v 3 h 1 v 3 h 1 v 2 h 1 v 3 h 1 v 3 h 1 v 3 h 1 v 3 h 1 v 3 h 1 v 2 h 1 v 3 h 1 v 3 h 1 v 3 h 1 v 2 h 1 v 3 h 1 v 3 h 1 v 2 h 1 v 3 h 1 v 3 h 1 v 3 h 1 v 2 h 1 v 3 h 1 v 3 h 1 v 3 h 1 v 2 h 1 v 3 h 1 v 2 h 1 v 3 h 1 v 3 h 1 v 2 h 1 v 3 h 1 v 2 h 1 v 3 h 1 v 3 h 1 v 2 h 1 v 3 h 1 v 2 h 1 v 3 h 1 v 3 h 1 v 2 h 1 v 3 h 1 v 2 h 1 v 3 h 1 v 3 h 1 v 2 h 1 v 3 h 1 v 2 h 1 v 2 h 1 v 3 h 1 v 2 h 1 v 3 h 1 v 2 h 1 v 3 h 1 v 2 h 1 v 3 h 1 v 2 h 1 v 3 h 1 v 2 h 1 v 3 h 1 v 2 h 1 v 3 h 1 v 2 h 1 v 3 h 1 v 2 h 1 v 2 h 1 v 3 h 1 v 2 h 1 v 2 h 1 v 3 h 1 v 2 h 1 v 2 h 1 v 3 h 1 v 2 h 1 v 3 h 1 v 2 h 1 v 2 h 1 v 3 h 1 v 2 h 1 v 2 h 1 v 3 h 1 v 2 h 1 v 2 h 1 v 3 h 1 v 2 h 1 v 2 h 1 v 3 h 1 v 2 h 1 v 2 h 1 v 2 h 1 v 3 h 1 v 2 h 1 v 2 h 1 v 2 h 1 v 3 h 1 v 2 h 1 v 2 h 1 v 2 h 1 v 3 h 1 v 2 h 1 v 2 h 1 v 2 h 1 v 3 h 1 v 2 h 1 v 2 h 1 v 2 h 1 v 2 h 1 v 3 h 1 v 2 h 1 v 2 h 1 v 2 h 1 v 2 h 1 v 2 h 1 v 3 h 1 v 2 h 1 v 2 h 1 v 2 h 1 v 2 h 1 v 2 h 1 v 3 h 1 v 2 h 1 v 2 h 1 v 2 h 1 v 2 h 1 v 2 h 1 v 2 h 1 v 2 h 1 v 2 h 1 v 3 h 1 v 2 h 1 v 2 h 1 v 2 h 1 v 2 h 1 v 2 h 1 v 2 h 1 v 2 h 1 v 2 h 1 v 2 h 1 v 2 h 1 v 2 h 1 v 3 h 1 v 2 h 1 v 2 h 1 v 2 h 1 v 2 h 1 v 2 h 1 v 2 h 1 v 2 h 1 v 2 h 1 v 2 h 1 v 2 h 1 v 2 h 1 v 2 h 1 v 2 h 1 v 2 h 1 v 2 h 1 v 2 h 1 v 2 h 1 v 2 h 1 v 2 h 1 v 2 h 1 v 2 h 1 v 2 h 1 v 2 h 1 v 2 h 1 v 2 h 1 v 2 h 1 v 1 h 1 v 2 h 1 v 2 h 1 v 2 h 1 v 2 h 1 v 2 h 1 v 2 h 1 v 2 h 1 v 2 h 1 v 2 h 1 v 2 h 1 v 2 h 1 v 2 h 1 v 2 h 1 v 1 h 1 v 2 h 1 v 2 h 1 v 2 h 1 v 2 h 1 v 2 h 1 v 2 h 1 v 2 h 1 v 2 h 1 v 1 h 1 v 2 h 1 v 2 h 1 v 2 h 1 v 2 h 1 v 2 h 1 v 2 h 1 v 1 h 1 v 2 h 1 v 2 h 1 v 2 h 1 v 2 h 1 v 2 h 1 v 2 h 1 v 1 h 1 v 2 h 1 v 2 h 1 v 2 h 1 v 2 h 1 v 1 h 1 v 2 h 1 v 2 h 1 v 2 h 1 v 2 h 1 v 1 h 1 v 2 h 1 v 2 h 1 v 2 h 1 v 2 h 1 v 1 h 1 v 2 h 1 v 2 h 1 v 2 h 1 v 2 h 1 v 1 h 1 v 2 h 1 v 2 h 1 v 2 h 1 v 1 h 1 v 2 h 1 v 2 h 1 v 2 h 1 v 1 h 1 v 2 h 1 v 2 h 1 v 2 h 1 v 1 h 1 v 2 h 1 v 2 h 1 v 2 h 1 v 1 h 1 v 2 h 1 v 2 h 1 v 2 h 1 v 1 h 1 v 2 h 1 v 2 h 1 v 1 h 1 v 2 h 1 v 2 h 1 v 2 h 1 v 1 h 1 v 2 h 1 v 2 h 1 v 1 h 1 v 2 h 1 v 2 h 1 v 1 h 1 v 2 h 1 v 2 h 1 v 1 h 1 v 2 h 1 v 2 h 1 v 1 h 1 v 2 h 1 v 2 h 1 v 1 h 1 v 2 h 1 v 2 h 1 v 1 h 1 v 2 h 1 v 2 h 1 v 1 h 1 v 2 h 1 v 2 h 1 v 1 h 1 v 2 h 1 v 2 h 1 v 1 h 1 v 2 h 1 v 1 h 1 v 2 h 1 v 2 h 1 v 1 h 1 v 2 h 1 v 2 h 1 v 1 h 1 v 2 h 1 v 1 h 1 v 2 h 1 v 2 h 1 v 1 h 1 v 2 h 1 v 1 h 1 v 2 h 1 v 2 h 1 v 1 h 1 v 2 h 1 v 1 h 1 v 2 h 1 v 2 h 1 v 1 h 1 v 2 h 1 v 1 h 1 v 2 h 1 v 1 h 1 v 2 h 1 v 2 h 1 v 1 h 1 v 2 h 1 v 1 h 1 v 2 h 1 v 1 h 1 v 2 h 1 v 2 h 1 v 1 h 1 v 2 h 1 v 1 h 1 v 2 h 1 v 1 h 1 v 2 h 1 v 1 h 1 v 2 h 1 v 1 h 1 v 2 h 1 v 1 h 1 v 2 h 1 v 1 h 1 v 2 h 1 v 2 h 1 v 1 h 1 v 2 h 1 v 1 h 1 v 2 h 1 v 1 h 1 v 2 h 1 v 1 h 1 v 2 h 1 v 1 h 1 v 2 h 1 v 1 h 1 v 2 h 1 v 1 h 1 v 2 h 1 v 1 h 1 v 2 h 1 v 1 h 1 v 2 h 1 v 1 h 1 v 1 h 1 v 2 h 1 v 1 h 1 v 2 h 1 v 1 h 1 v 2 h 1 v 1 h 1 v 2 h 1 v 1 h 1 v 2 h 1 v 1 h 1 v 2 h 1 v 1 h 1 v 2 h 1 v 1 h 1 v 2 h 1 v 1 h 1 v 1 h 1 v 2 h 1 v 1 h 1 v 2 h 1 v 1 h 1 v 2 h 1 v 1 h 1 v 1 h 1 v 2 h 1 v 1 h 1 v 2 h 1 v 1 h 1 v 2 h 1 v 1 h 1 v 2 h 1 v 1 h 1 v 1 h 1 v 2 h 1 v 1 h 1 v 2 h 1 v 1 h 1 v 1 h 1 v 2 h 1 v 1 h 1 v 2 h 1 v 1 h 1 v 1 h 1 v 2 h 1 v 1 h 1 v 2 h 1 v 1 h 1 v 1 h 1 v 2 h 1 v 1 h 1 v 2 h 1 v 1 h 1 v 1 h 1 v 2 h 1 v 1 h 1 v 2 h 1 v 1 h 1 v 1 h 1 v 2 h 1 v 1 h 1 v 1 h 1 v 2 h 1 v 1 h 1 v 1 h 1 v 2 h 1 v 1 h 1 v 2 h 1 v 1 h 1 v 1 h 1 v 2 h 1 v 1 h 1 v 1 h 1 v 2 h 1 v 1 h 1 v 1 h 1 v 2 h 1 v 1 h 1 v 1 h 1 v 2 h 1 v 1 h 1 v 1 h 1 v 2 h 1 v 1 h 1 v 1 h 1 v 2 h 1 v 1 h 1 v 1 h 1 v 2 h 1 v 1 h 1 v 1 h 1 v 2 h 1 v 1 h 1 v 1 h 1 v 2 h 1 v 1 h 1 v 1 h 1 v 2 h 1 v 1 h 1 v 1 h 1 v 2 h 1 v 1 h 1 v 1 h 1 v 1 h 1 v 2 h 1 v 1 h 1 v 1 h 1 v 2 h 1 v 1 h 1 v 1 h 1 v 2 h 1 v 1 h 1 v 1 h 1 v 1 h 1 v 2 h 1 v 1 h 1 v 1 h 1 v 2 h 1 v 1 h 1 v 1 h 1 v 1 h 1 v 2 h 1 v 1 h 1 v 1 h 1 v 1 h 1 v 2 h 1 v 1 h 1 v 1 h 1 v 2 h 1 v 1 h 1 v 1 h 1 v 1 h 1 v 2 h 1 v 1 h 1 v 1 h 1 v 1 h 1 v 2 h 1 v 1 h 1 v 1 h 1 v 1 h 1 v 2 h 1 v 1 h 1 v 1 h 1 v 1 h 1 v 2 h 1 v 1 h 1 v 1 h 1 v 1 h 1 v 2 h 1 v 1 h 1 v 1 h 1 v 1 h 1 v 1 h 1 v 2 h 1 v 1 h 1 v 1 h 1 v 1 h 1 v 2 h 1 v 1 h 1 v 1 h 1 v 1 h 1 v 2 h 1 v 1 h 1 v 1 h 1 v 1 h 1 v 1 h 1 v 2 h 1 v 1 h 1 v 1 h 1 v 1 h 1 v 1 h 1 v 2 h 1 v 1 h 1 v 1 h 1 v 1 h 1 v 1 h 1 v 2 h 1 v 1 h 1 v 1 h 1 v 1 h 1 v 1 h 1 v 2 h 1 v 1 h 1 v 1 h 1 v 1 h 1 v 1 h 1 v 2 h 1 v 1 h 1 v 1 h 1 v 1 h 1 v 1 h 1 v 1 h 1 v 2 h 1 v 1 h 1 v 1 h 1 v 1 h 1 v 1 h 1 v 1 h 1 v 2 h 1 v 1 h 1 v 1 h 1 v 1 h 1 v 1 h 1 v 1 h 1 v 2 h 1 v 1 h 1 v 1 h 1 v 1 h 1 v 1 h 1 v 1 h 1 v 1 h 1 v 2 h 1 v 1 h 1 v 1 h 1 v 1 h 1 v 1 h 1 v 1 h 1 v 1 h 1 v 2 h 1 v 1 h 1 v 1 h 1 v 1 h 1 v 1 h 1 v 1 h 1 v 1 h 1 v 2 h 1 v 1 h 1 v 1 h 1 v 1 h 1 v 1 h 1 v 1 h 1 v 1 h 1 v 2 h 1 v 1 h 1 v 1 h 1 v 1 h 1 v 1 h 1 v 1 h 1 v 1 h 1 v 1 h 1 v 1 h 1 v 2 h 1 v 1 h 1 v 1 h 1 v 1 h 1 v 1 h 1 v 1 h 1 v 1 h 1 v 1 h 1 v 1 h 1 v 2 h 1 v 1 h 1 v 1 h 1 v 1 h 1 v 1 h 1 v 1 h 1 v 1 h 1 v 1 h 1 v 1 h 1 v 1 h 1 v 1 h 1 v 2 h 1 v 1 h 1 v 1 h 1 v 1 h 1 v 1 h 1 v 1 h 1 v 1 h 1 v 1 h 1 v 1 h 1 v 1 h 1 v 1 h 1 v 1 h 1 v 2 h 1 v 1 h 1 v 1 h 1 v 1 h 1 v 1 h 1 v 1 h 1 v 1 h 1 v 1 h 1 v 1 h 1 v 1 h 1 v 1 h 1 v 1 h 1 v 1 h 1 v 1 h 1 v 1 h 1 v 2 h 1 v 1 h 1 v 1 h 1 v 1 h 1 v 1 h 1 v 1 h 1 v 1 h 1 v 1 h 1 v 1 h 1 v 1 h 1 v 1 h 1 v 1 h 1 v 1 h 1 v 1 h 1 v 1 h 1 v 1 h 1 v 1 h 1 v 1 h 1 v 1 h 1 v 1 h 1 v 1 h 1 v 1 h 1 v 1 h 1 v 1 h 1 v 2 h 1 v 1 h 1 v 1 h 1 v 1 h 1 v 1 h 1 v 1 h 1 v 1 h 1 v 1 h 1 v 1 h 1 v 1 h 1 v 1 h 1 v 1 h 1 v 1 h 1 v 1 h 1 v 1 h 1 v 1 h 1 v 1 h 1 v 1 h 1 v 1 h 1 v 1 h 1 v 1 h 1 v 1 h 1 v 1 h 1 v 1 h 1 v 1 h 1 v 1 h 1 v 1 h 1 v 1 h 1 v 1 h 1 v 1 h 1 v 1 h 1 v 1 h 1 v 1 h 1 v 1 h 1 v 1 h 1 v 1 h 1 v 1 h 1 v 1 h 1 v 1 h 1 v 1 h 1 v 1 h 1 v 1 h 1 v 1 h 1 v 1 h 1 v 1 h 1 v 1 h 1 v 1 h 1 v 1 h 1 v 1 h 1 v 1 h 1 v 1 h 1 v 1 h 2 v 1 h 1 v 1 h 1 v 1 h 1 v 1 h 1 v 1 h 1 v 1 h 1 v 1 h 1 v 1 h 1 v 1 h 1 v 1 h 1 v 1 h 1 v 1 h 1 v 1 h 1 v 1 h 1 v 1 h 1 v 1 h 1 v 1 h 1 v 1 h 1 v 1 h 1 v 1 h 1 v 1 h 1 v 1 h 2 v 1 h 1 v 1 h 1 v 1 h 1 v 1 h 1 v 1 h 1 v 1 h 1 v 1 h 1 v 1 h 1 v 1 h 1 v 1 h 1 v 1 h 1 v 1 h 1 v 1 h 1 v 1 h 1 v 1 h 2 v 1 h 1 v 1 h 1 v 1 h 1 v 1 h 1 v 1 h 1 v 1 h 1 v 1 h 1 v 1 h 1 v 1 h 1 v 1 h 1 v 1 h 2 v 1 h 1 v 1 h 1 v 1 h 1 v 1 h 1 v 1 h 1 v 1 h 1 v 1 h 1 v 1 h 1 v 1 h 1 v 1 h 2 v 1 h 1 v 1 h 1 v 1 h 1 v 1 h 1 v 1 h 1 v 1 h 1 v 1 h 1 v 1 h 1 v 1 h 2 v 1 h 1 v 1 h 1 v 1 h 1 v 1 h 1 v 1 h 1 v 1 h 1 v 1 h 1 v 1 h 2 v 1 h 1 v 1 h 1 v 1 h 1 v 1 h 1 v 1 h 1 v 1 h 1 v 1 h 2 v 1 h 1 v 1 h 1 v 1 h 1 v 1 h 1 v 1 h 1 v 1 h 1 v 1 h 2 v 1 h 1 v 1 h 1 v 1 h 1 v 1 h 1 v 1 h 1 v 1 h 2 v 1 h 1 v 1 h 1 v 1 h 1 v 1 h 1 v 1 h 2 v 1 h 1 v 1 h 1 v 1 h 1 v 1 h 1 v 1 h 1 v 1 h 2 v 1 h 1 v 1 h 1 v 1 h 1 v 1 h 1 v 1 h 2 v 1 h 1 v 1 h 1 v 1 h 1 v 1 h 1 v 1 h 2 v 1 h 1 v 1 h 1 v 1 h 1 v 1 h 1 v 1 h 2 v 1 h 1 v 1 h 1 v 1 h 1 v 1 h 2 v 1 h 1 v 1 h 1 v 1 h 1 v 1 h 1 v 1 h 2 v 1 h 1 v 1 h 1 v 1 h 1 v 1 h 2 v 1 h 1 v 1 h 1 v 1 h 1 v 1 h 2 v 1 h 1 v 1 h 1 v 1 h 1 v 1 h 2 v 1 h 1 v 1 h 1 v 1 h 2 v 1 h 1 v 1 h 1 v 1 h 1 v 1 h 1 v 1 h 1 v 1 h 1 v 1 h 1 v 1 h 1 v 1 h 1 v 1 h 1 v 1 h 1 v 2 h 1 v 1 h 1 v 1 h 1 v 1 h 1 v 1 h 1 v 1 h 1 v 1 h 1 v 1 h 1 v 1 h 1 v 1 h 1 v 2 h 1 v 1 h 1 v 1 h 1 v 1 h 1 v 1 h 1 v 1 h 1 v 2 h 1 v 1 h 1 v 1 h 1 v 1 h 1 v 1 h 1 v 1 h 1 v 1 h 1 v 2 h 1 v 1 h 1 v 1 h 1 v 1 h 1 v 1 h 1 v 2 h 1 v 1 h 1 v 1 h 1 v 1 h 1 v 1 h 1 v 2 h 1 v 1 h 1 v 1 h 1 v 1 h 1 v 2 h 1 v 1 h 1 v 1 h 1 v 1 h 1 v 2 h 1 v 1 h 1 v 1 h 1 v 2 h 1 v 1 h 1 v 1 h 1 v 2 h 1 v 1 h 1 v 1 h 1 v 2 h 1 v 1 h 1 v 1 h 1 v 2 h 1 v 1 h 1 v 2 h 1 v 1 h 1 v 2 h 1 v 1 h 1 v 2 h 1 v 1 h 1 v 2 h 1 v 1 h 1 v 2 h 1 v 1 h 1 v 2 h 1 v 2 h 1 v 1 h 1 v 2 h 1 v 2 h 1 v 1 h 1 v 2 h 1 v 2 h 1 v 2 h 1 v 2 h 1 v 2 h 1 v 2 h 1 v 2 h 1 v 2 h 1 v 1 h 1 v 3 h 1 v 2 h 1 v 2 h 1 v 2 h 1 v 3 h 1 v 2 h 1 v 3 h 1 v 2 h 1 v 3 h 1 v 3 h 1 v 3 h 1 v 3 h 1 v 3 h 1 v 4 h 1 v 3 h 1 v 4 h 1 v 4 h 1 v 5 h 1 v 4 h 1 v 5 h 1 v 6 h 1 v 6 h 1 v 7 h 1 v 8 h 1 v 9 h 1 v 10 h 1 v 12 h 1 v 12 h 1 v 13 h 1 v 1 h 1 v -1 h 1 v -3 h 1 v -3 h 1 v -3 h 1 v -4 h 1 v -3 h 1 v -4 h 1 v -5 h 1 v -4 h 1 v -5 h 1 v -6 h 1 v -6 h 1 v -5 h 1 v -7 h 1 v -7 h 1 v -7 h 1 v -8 h 1 v -8 h 1 v -9 h 1 v -9 h 1 v -9 h 1 v -11 h 1 v -10 h 1 v -11 h 1 v -12 h 1 v -12 h 1 v -13 h 1 v -13 h 1 v -14 h 1 v -15 h 1 v -15 h 1 v -17 h 1 v -16 h 1 v -18 h 1 v -19 h 1 v -19 h 1 v -20 h 1 v -22 h 1 v -22 h 1 v -24 h 1 v -24 h 1 v -26 h 1 v -27 h 1 v -29 h 1 v -30 h 1 v -31 h 1 v -34 h 1 v -35 h 1 v -37 h 1 v -40 h 1 v -42 h 1 v -45 h 1 v -48 h 1 v -51 h 1 v -55 h 1 v -59 h 1 v -65 h 1 v -71 h 1 v -78 h 1 v -86 h 1 v -98 h 1 v -112 h 1 v -131 h 1 v -157 h 1 v -192 h 1 v -221 h 1 v -192 h 1 v -115 h 1 v -58 h 1 v -34 h 1 v -40 h 1 v -42 h 1 v -51 h 1 v -63 h 1 v -97 h 1 v -193 h -1 v -98 h -1 v -63 h -1 v -53 h -1 v -40 h -1 v -40 h -1 v -33 h -1 v -32 h -1 v -31 h -1 v -27 h -1 v -26 h -1 v -27 h -1 v -23 h -1 v -22 h -1 v -23 h -1 v -22 h -1 v -20 h -1 v -20 h -1 v -19 h -1 v -19 h -1 v -18 h -1 v -17 h -1 v -18 h -1 v -17 h -1 v -16 h -1 v -16 h -1 v -16 h -1 v -16 h -1 v -15 h -1 v -14 h -1 v -14 h -1 v -14 h -1 v -15 h -1 v -13 h -1 v -13 h -1 v -13 h -1 v -13 h -1 v -13 h -1 v -13 h -1 v -12 h -1 v -12 h -1 v -12 h -1 v -12 h -1 v -11 h -1 v -12 h -1 v -11 h -1 v -11 h -1 v -10 h -1 v -11 h -1 v -11 h -1 v -11 h -1 v -10 h -1 v -10 h -1 v -9 h -1 v -10 h -1 v -10 h -1 v -10 h -1 v -9 h -1 v -9 h -1 v -10 h -1 v -9 h -1 v -9 h -1 v -9 h -1 v -9 h -1 v -8 h -1 v -8 h -1 v -9 h -1 v -8 h -1 v -9 h -1 v -8 h -1 v -8 h -1 v -7 h -1 v -8 h -1 v -8 h -1 v -8 h -1 v -7 h -1 v -8 h -1 v -7 h -1 v -7 h -1 v -7 h -1 v -7 h -1 v -7 h -1 v -7 h -1 v -7 h -1 v -7 h -1 v -6 h -1 v -7 h -1 v -6 h -1 v -7 h -1 v -6 h -1 v -6 h -1 v -7 h -1 v -5 h -1 v -6 h -1 v -6 h -1 v -6 h -1 v -6 h -1 v -6 h -1 v -5 h -1 v -6 h -1 v -5 h -1 v -5 h -1 v -6 h -1 v -5 h -1 v -5 h -1 v -5 h -1 v -5 h -1 v -5 h -1 v -5 h -1 v -4 h -1 v -5 h -1 v -5 h -1 v -5 h -1 v -4 h -1 v -5 h -1 v -4 h -1 v -4 h -1 v -4 h -1 v -4 h -1 v -4 h -1 v -5 h -1 v -4 h -1 v -3 h -1 v -4 h -1 v -4 h -1 v -3 h -1 v -4 h -1 v -4 h -1 v -3 h -1 v -3 h -1 v -4 h -1 v -3 h -1 v -3 h -1 v -3 h -1 v -3 h -1 v -3 h -1 v -3 h -1 v -3 h -1 v -3 h -1 v -2 h -1 v -3 h -1 v -3 h -1 v -2 h -1 v -2 h -1 v -2" /></g></g></g><g
         transform="scale(1.0461)"
         id="g70"><path
           id="path72"
           style="fill:#bfbdba;fill-opacity:1;fill-rule:nonzero;stroke:none"
           d="m 14686.3,1202.06 c 79.7,-63.76 239.2,-90.01 379.7,-90.01 182.3,0 360.8,33.8 535.3,191.22 178.5,161.3 300,408.76 300,802.47 0,378.73 -144.3,686.21 -440.4,866.2 -167.1,104.98 -383.5,146.21 -630.4,146.21 -72,0 -144.2,-3.73 -186,-22.48 -11.4,-7.5 -34.2,-37.5 -34.2,-52.53 -7.5,-67.47 -7.5,-581.18 -7.5,-884.89 0,-311.21 0,-746.18 7.5,-798.73 3.9,-44.97 26.7,-123.71 76,-157.46 z m -757.9,2084.84 c 64.6,0 309.9,-11.24 423.8,-11.24 212.6,0 360.7,11.24 759.3,11.24 334.2,0 615.1,-90 816.4,-262.46 243,-210.01 372.1,-502.48 372.1,-858.69 0,-506.22 -231.6,-798.69 -463.2,-963.69 -231.7,-172.47 -531.6,-269.975 -960.7,-269.975 -227.8,0 -618.9,7.506 -945.5,11.206 h -4.4 c -15.2,30.045 28,146.979 54.7,150.009 88.3,10 112.2,13.39 153.2,30.27 68.9,28.35 85.1,63.48 92.8,187.23 11.4,232.47 7.6,509.94 7.6,824.94 0,224.97 3.8,663.69 -3.8,802.45 -11.5,116.23 -60.7,146.21 -159.4,168.74 -49.5,11.22 -117.8,22.49 -212.6,33.74 -7.7,22.48 50.8,123.76 69.7,146.23" /></g><g
         transform="scale(1.19129)"
         id="g74"><path
           id="path76"
           style="fill:#bfbdba;fill-opacity:1;fill-rule:nonzero;stroke:none"
           d="m 15196.4,2724.96 c -13.3,-3.29 -30,-36.23 -30,-52.69 -3.3,-118.51 -6.6,-428.03 -6.6,-642.03 0,-6.59 9.9,-16.47 16.6,-16.47 43.4,-3.33 150,-6.62 240,-6.62 126.8,0 200.1,16.5 240.2,36.26 106.7,52.65 156.6,167.91 156.6,293.03 0,286.46 -200,395.13 -496.7,395.13 -20,0 -76.8,0 -120.1,-6.61 z m 756.8,-1317.08 c 0,289.75 -213.3,454.37 -603.4,454.37 -16.7,0 -140,3.33 -170,-3.29 -10.1,-3.26 -20,-9.85 -20,-16.43 0,-207.47 -3.4,-540.03 6.6,-671.71 6.7,-55.99 46.7,-135.02 96.7,-158.07 53.4,-29.636 173.4,-36.227 256.7,-36.227 230.1,0 433.4,128.437 433.4,431.357 z m -1358.9,1478.44 c 30,0 118.8,-9.87 345.4,-9.87 213.4,0 386.7,6.55 593.5,6.55 256.7,0 610.1,-92.17 610.1,-474.14 0,-187.67 -133.3,-339.14 -306.7,-411.59 -10,-3.3 -10,-9.88 0,-13.18 246.7,-62.53 463.4,-214.01 463.4,-503.76 0,-283.17 -176.7,-461 -433.4,-572.958 -156.7,-69.119 -350,-92.17 -546.9,-92.17 -150,0 -552,16.461 -775.4,13.129 -23.4,9.922 21.4,115.303 41.3,131.731 53.4,3.289 94.6,7.135 151.2,23.596 80,19.762 89.5,45.552 99.5,164.112 6.7,102.04 6.7,467.53 6.7,727.69 0,355.62 3.4,595.97 0,714.5 -3.4,92.21 -36.7,121.85 -100.1,138.32 -49.9,9.86 -133.3,19.75 -199.9,29.63 -16.7,16.46 34.6,115.24 51.3,128.41" /></g><path
         id="path78"
         style="fill:#414043;fill-opacity:1;fill-rule:nonzero;stroke:none"
         d="m 3176.5,976.781 c -6.62,10.559 -13.62,41.759 -12.15,79.309 1.08,28.53 6.76,46.65 12.1,52.86 74.91,11.82 110.38,19.81 152.47,31.06 70.22,17.42 96.7,55.34 100.82,145.16 11.54,211.56 12.2,608.25 7.99,887.25 l 0.05,8.22 c 0.33,29.93 0.8,70.85 -36.79,99.71 -55.09,36.28 -123.76,66.31 -210.68,92.38 -33.25,9.85 -51.64,27.32 -50.65,47.78 1.04,19.66 21.9,44.64 65.26,53 115.01,11.86 416.58,83.64 534.9,138.24 7,-8.5 18.06,-26.95 15.93,-56.37 -0.89,-12.37 -1.98,-25.31 -3.07,-38.71 -3.36,-39.42 -7.14,-84.12 -7.14,-128.67 0,-13.12 14.23,-25.55 29.32,-25.55 7.66,0 14.75,2.99 20.53,8.69 225.52,176.49 427.22,239.49 531.06,239.49 170.62,0 303.41,-81.45 406.03,-248.88 6.01,-8.87 14.1,-13.54 23.13,-13.54 8.61,0 16.74,4.43 21.51,11.53 207.38,157.11 412.89,250.89 550.27,250.89 325.16,0 519.39,-243.13 519.39,-650.24 0,-116.99 -1.18,-265.27 -2.22,-403.7 -1,-121.43 -1.85,-235.28 -1.85,-314.07 0,-19.1 25.54,-72.07 64.12,-82.66 47.53,-23.12 116.24,-34.94 202.97,-49.89 l 3.36,-0.56 c 6.57,-23.3 -7.23,-114.088 -20.43,-132.678 -21.51,0.188 -51.36,1.727 -88.48,3.598 -67.53,3.461 -160.03,8.121 -267.75,8.121 -216.07,0 -328.95,-4.25 -436.78,-11.211 -8.13,26.95 -10.96,113.82 -1.08,131.94 62.9,11.77 94.01,19.7 131.75,30.87 68.76,22.65 88.57,53.8 92.59,145.02 1.56,64.91 14.05,635.85 -8.09,771.43 -20.37,140.48 -126.4,304.92 -358.26,304.92 -85.98,0 -224.97,-35.73 -357.42,-136.05 -8.23,-7.98 -12.96,-23.48 -12.96,-33.67 l 0.24,-2.61 c 15.6,-73.19 15.6,-158.51 15.6,-287.65 0,-73.6 -0.47,-151.69 -0.89,-229.21 -0.9,-157.4 -1.75,-306.05 0.89,-418.32 0,-76.55 46.35,-94.8 83.61,-109.56 20.24,-4.49 36.32,-8.36 52.4,-12.19 31.21,-7.52 63.51,-15.27 111.33,-22.93 6.51,-15.09 7.13,-60.15 -1.85,-98.69 -5.02,-21.3 -10.79,-30.679 -13.81,-33.718 -120.17,4.109 -243.45,7.707 -421.31,7.707 -53.91,0 -141.96,-2.328 -219.61,-4.391 -62.94,-1.679 -122.58,-3.316 -156.44,-3.457 -4.92,7.75 -11.77,32.599 -11.77,68.369 0,33.26 6.09,56.71 12.39,63.94 16.69,3.09 32.58,5.89 47.76,8.6 41.71,7.42 77.74,13.77 112.31,22.27 58.88,17.93 80.96,50.63 85.27,125.4 11.49,174.58 20.47,677.42 -4.26,803.38 -42.08,202.08 -157.29,304.5 -342.28,304.5 -108.49,0 -245.39,-52.12 -357.33,-135.95 -18.77,-13.83 -32.96,-48.62 -32.96,-80.75 0,-59.87 -0.19,-131.19 -0.42,-207.64 -0.76,-252.57 -1.66,-566.92 4.49,-702.97 3.78,-41.8 18.34,-91.58 97.27,-109.94 17.21,-4.81 47.05,-9.81 81.62,-15.5 19.91,-3.32 41.67,-6.91 64.04,-10.93 8.04,-21.62 3.12,-106.39 -10.65,-132.779 -34.51,0.239 -76.98,2.199 -125.69,4.348 -74.44,3.262 -166.98,7.422 -272.48,7.422 -124.14,0 -210.59,-4.16 -280.01,-7.422 -46.54,-2.199 -86.92,-4.16 -127.21,-4.348 v 0" /><path
         id="path80"
         style="fill:#414043;fill-opacity:1;fill-rule:nonzero;stroke:none"
         d="m 7116.92,2443.85 c -72.31,0 -139.79,-18.91 -190.01,-53.28 -137.95,-83.79 -208.13,-251.08 -208.13,-496.83 0,-460.2 230.69,-781.56 560.96,-781.56 97.42,0 176.87,27.97 242.88,85.55 101.49,82.72 155.3,251.64 155.3,488.14 0,453.39 -225.47,757.98 -561,757.98 z m 63.61,-1502.37 c -596.76,0 -809.37,437.23 -809.37,846.34 0,285.78 116.99,509.25 347.86,664.11 164.1,100.74 359.98,158.7 536.94,158.7 455.4,0 773.52,-327.06 773.52,-795.4 0,-318.41 -127.12,-569.72 -367.54,-726.78 -115.3,-70.67 -315.38,-146.97 -481.41,-146.97 v 0" /><path
         id="path82"
         style="fill:#414043;fill-opacity:1;fill-rule:nonzero;stroke:none"
         d="m 13296.5,2443.85 c -72.4,0 -139.9,-18.91 -190.1,-53.28 -137.9,-83.79 -208.1,-251.03 -208.1,-496.83 0,-460.2 230.6,-781.56 561,-781.56 97.4,0 176.8,27.97 242.8,85.6 101.5,82.67 155.3,251.54 155.3,488.05 0,453.38 -225.4,758.02 -560.9,758.02 z M 13360,941.48 c -596.8,0 -809.4,437.18 -809.4,846.29 0,285.88 117.1,509.35 348,664.21 164,100.74 359.9,158.65 536.9,158.65 455.4,0 773.5,-327.11 773.5,-795.35 0,-318.51 -127.1,-569.81 -367.5,-726.78 -115.3,-70.72 -315.4,-147.02 -481.5,-147.02 v 0" /><path
         id="path84"
         style="fill:#414043;fill-opacity:1;fill-rule:nonzero;stroke:none"
         d="m 11299.5,2459.5 c -183.9,0 -302.8,-145.11 -302.8,-369.65 0,-226.65 102.2,-491.26 390.3,-491.26 49.5,0 139.1,21.95 183.5,70.89 66.9,61.41 110.6,188.3 110.6,322.34 0,292.87 -142.6,467.68 -381.6,467.68 z m -23.7,-1549.359 c -69.1,0 -119.4,-20.082 -149.4,-36.942 -145.6,-93.219 -213.1,-186.347 -213.1,-293.527 0,-101.113 39.3,-181.442 123.7,-252.852 102.2,-86.539 240.1,-128.609 421.4,-128.609 356.7,0 516.6,191.57 516.6,381.461 0,132.117 -66.4,220.707 -202.9,270.777 -105.3,38.442 -281.1,59.692 -496.3,59.692 z M 11299.5,0 c -214.2,0 -368.5,45.1602 -500.4,146.5 -128.3,98.922 -185.7,245.57 -185.7,346.922 0,29.137 6.9,104.469 70.2,176.43 37.4,42.359 123.8,121.66 323.5,258.867 6.2,2.301 10.4,8.359 10.4,15.703 0,8.168 -5.2,14.797 -12.5,16.348 -164.6,62.95 -214.3,166.25 -229.2,222.3 -0.2,2.01 -0.9,5.23 -1.6,8.64 -4.8,21.99 -9.2,42.78 20.6,64.12 23,16.44 60,38.34 99.2,61.46 57.9,34.15 123.5,72.81 159.8,103.92 5.7,5.6 8.1,13.82 6.7,22.04 -1.4,8.32 -6.2,15.13 -13.3,18.64 -243.6,81.77 -366.3,262.51 -366.3,537.78 0,177.7 82,338.31 225,440.73 98,77.34 343.9,170.32 503.3,170.32 l 9.2,-0.09 c 163.9,-3.88 256.3,-38.15 384.2,-85.47 69.4,-25.68 135.2,-36.09 227.1,-36.09 135.7,0 194.9,42.96 245.8,92.28 2.9,-6.12 9.8,-25.5 12.9,-70.15 3.2,-45.53 -9.2,-113.02 -44.1,-161.17 -27.7,-38.39 -92,-66.22 -152.7,-66.22 -6.1,0 -12.1,0.28 -17.8,0.88 -62.5,6.13 -91.9,15.23 -92.1,15.37 l -15.4,-5.33 c -4.8,-7.05 -1.7,-14.89 2.3,-24.79 1,-2.38 1.9,-4.63 2.3,-6.13 8,-31.75 22.1,-124.46 22.1,-150.42 0,-288.67 -114,-414.58 -237.2,-507.66 -117.6,-88.64 -255.1,-141.93 -410,-158.28 h -0.1 c -3.2,0 -17.8,-1.3 -47.4,-3.92 -19.1,-1.73 -42.9,-3.87 -46.4,-3.87 l -3.5,-0.47 c -26.9,-7.61 -96.7,-40.78 -96.7,-102.52 0,-51.37 31.7,-115.02 182.6,-126.41 30.6,-2.3 63.5,-4.59 97.8,-6.92 199.4,-13.87 448.4,-31.15 565.5,-70.85 161.2,-58.66 261.5,-202.869 261.5,-376.33 0,-259.058 -184.4,-502.609 -493.2,-651.449 C 11616.1,34.2813 11464,0 11299.5,0 v 0" /><path
         id="path86"
         style="fill:#414043;fill-opacity:1;fill-rule:nonzero;stroke:none"
         d="m 10329.9,1120.96 c -87.4,11.77 -151,23.54 -226.4,58.84 -11.9,7.85 -27.9,43.15 -27.9,54.92 -7.9,121.61 -7.9,474.64 -7.9,706.06 0,188.3 -31.7,353.02 -111.17,470.76 -95.34,133.34 -230.36,211.79 -405.14,211.79 -154.87,0 -361.44,-105.92 -532.2,-251.07 -3.98,-3.92 -30.22,-28.77 -29.65,9.86 0.61,38.57 6.57,117.08 10.17,166.54 3.59,49.41 -26.02,72.71 -26.02,72.71 -111.22,-54.92 -424.42,-129.27 -540.09,-141.22 -84.54,-16.26 -105.84,-97.45 -15.84,-125.48 v -0.02 c 0,-0.14 0.86,-0.29 1.35,-0.43 94.22,-28.31 157.69,-58.57 205.07,-89.79 35.75,-27.47 31.75,-66.7 31.75,-98.08 3.97,-262.8 3.96,-666.87 -7.96,-886.51 -3.97,-86.31 -27.81,-117.64 -91.36,-133.39 l 5.8,1.97 c -47.66,-11.72 -87.39,-19.62 -146.97,-27.46 -19.86,-19.57 -19.86,-133.339 0,-156.921 39.72,0 242.31,11.813 409.1,11.813 230.35,0 349.52,-11.813 409.11,-11.813 23.83,27.5 31.78,133.431 15.89,156.921 -67.53,3.92 -115.2,11.77 -162.87,23.54 -63.56,15.69 -79.45,47.07 -83.37,117.68 -7.95,184.34 -7.95,576.59 -7.95,843.36 0,74.54 19.86,109.85 43.7,129.47 79.4,70.6 210.49,117.63 325.69,117.63 111.18,0 186.65,-35.3 242.26,-82.33 75.48,-62.77 103.28,-153 111.23,-219.69 15.89,-149.08 11.87,-447.18 11.87,-706.05 0,-141.23 -11.87,-176.54 -63.51,-192.23 -23.84,-11.77 -87.39,-23.54 -162.87,-31.38 -23.78,-23.49 -15.88,-133.339 0,-156.921 103.28,0 222.45,11.813 397.19,11.813 218.49,0 357.49,-11.813 413.09,-11.813 23.8,27.5 31.7,129.501 15.9,156.921" /></g></g></svg>