<?xml version="1.0" encoding="utf-8"?>
<!-- Generator: Adobe Illustrator 21.1.0, SVG Export Plug-In . SVG Version: 6.00 Build 0)  -->
<svg version="1.1" id="Layer_1" xmlns="http://www.w3.org/2000/svg" xmlns:xlink="http://www.w3.org/1999/xlink" x="0px" y="0px"
	 viewBox="0 0 112 112" style="enable-background:new 0 0 112 112;" xml:space="preserve">
<style type="text/css">
	.st0{fill:#FED10A;}
	.st1{fill:#0078A0;}
	.st2{fill:#00A9E5;}
	.st3{fill:#353535;}
	.st4{fill:#00BFB3;}
	.st5{fill:#019B8F;}
	.st6{fill:#FFFFFF;}
</style>
<g id="X-Pack_4_">
	<path class="st0" d="M77.3,56L57.7,36.3l16.9-16.9c4.7-4.7,12.2-4.7,16.9,0l2.8,2.8c4.7,4.7,4.7,12.2,0,16.9L77.3,56z"/>
	<path class="st1" d="M38,56L21.1,72.9c-4.7,4.7-4.7,12.2,0,16.9l2.8,2.8c4.7,4.7,12.2,4.7,16.9,0l16.9-16.9L38,56z"/>
	<g>
		<path class="st2" d="M74.5,53.2L40.8,19.5c-4.7-4.7-12.2-4.7-16.9,0l-2.8,2.8c-4.7,4.7-4.7,12.2,0,16.9L38,56l2.8-2.8
			C50.1,43.9,65.2,43.9,74.5,53.2z"/>
		<path class="st3" d="M74.5,53.2c-9.3-9.3-24.4-9.3-33.7,0L38,56l0,0l19.7,19.7L77.3,56L74.5,53.2z"/>
	</g>
	<g>
		<path class="st4" d="M94.2,72.9L82.9,61.6L63.3,81.3l11.2,11.2c4.7,4.7,12.2,4.7,16.9,0l2.8-2.8C98.8,85,98.8,77.5,94.2,72.9z"/>
		
			<rect x="56.4" y="64.7" transform="matrix(0.7071 -0.7071 0.7071 0.7071 -27.9454 69.8096)" class="st5" width="27.8" height="7.9"/>
	</g>
</g>
</svg>
